<svg width="28" height="28" viewBox="0 0 28 28" fill="none" xmlns="http://www.w3.org/2000/svg">
<g clip-path="url(#clip0_204_8)">
<rect width="28" height="28" rx="14" fill="white"/>
<path d="M26.5 14V13.9994C26.4961 10.6856 25.178 7.50852 22.8347 5.16526C20.4915 2.822 17.3145 1.50387 14.0006 1.50001L14 2.00001V1.50001C11.5277 1.50001 9.11099 2.23312 7.05538 3.60664C4.99976 4.98015 3.39761 6.93239 2.45151 9.21646C1.50542 11.5005 1.25788 14.0139 1.74019 16.4386C2.22251 18.8634 3.41301 21.0907 5.16117 22.8388C6.90933 24.587 9.13662 25.7775 11.5614 26.2598C13.9861 26.7421 16.4995 26.4946 18.7835 25.5485C21.0676 24.6024 23.0199 23.0002 24.3934 20.9446C25.7669 18.889 26.5 16.4723 26.5 14ZM25.2248 6.49981C26.7081 8.71972 27.4999 11.3296 27.5 13.9994C27.4959 17.5788 26.0722 21.0103 23.5413 23.5413C21.0103 26.0722 17.5788 27.4959 13.9994 27.5C11.3296 27.4999 8.71971 26.7081 6.49981 25.2248C4.27974 23.7414 2.54942 21.633 1.52763 19.1662C0.50585 16.6994 0.238505 13.985 0.759405 11.3663C1.28031 8.74754 2.56606 6.34207 4.45406 4.45406C6.34207 2.56606 8.74754 1.28031 11.3663 0.759405C13.985 0.238505 16.6994 0.50585 19.1662 1.52763C21.633 2.54942 23.7414 4.27974 25.2248 6.49981Z" fill="black" stroke="black"/>
<path fill-rule="evenodd" clip-rule="evenodd" d="M15 12.5L21 15V13L15 10V7C15 6.73478 14.8946 6.48043 14.7071 6.29289C14.5196 6.10536 14.2652 6 14 6C13.7348 6 13.4804 6.10536 13.2929 6.29289C13.1054 6.48043 13 6.73478 13 7V10L7 13V15L13 12.5V18L10 20V21L14 20L18 21V20L15 18V12.5Z" fill="black"/>
</g>
<defs>
<clipPath id="clip0_204_8">
<rect width="28" height="28" rx="14" fill="white"/>
</clipPath>
</defs>
</svg>
